<svg width="410" height="151" viewBox="0 0 410 151" fill="none" xmlns="http://www.w3.org/2000/svg">
<rect width="369" height="151" rx="15" fill="#3E3E3E"/>
<path d="M62.0759 20H58.9241C39.636 20 24 35.6126 24 54.8717V96.8584C24 116.117 39.636 131.73 58.9241 131.73H62.0759C81.364 131.73 97 116.117 97 96.8584V54.8717C97 35.6126 81.364 20 62.0759 20Z" fill="white" stroke="white" stroke-width="5.76" stroke-miterlimit="10"/>
<path d="M67.0061 89.5386C61.4344 95.1237 51.7768 91.4939 51.3125 83.7243L48.7261 83.6616C50.4222 98.0117 70.1716 98.4917 72.0534 83.9343C71.234 83.9343 70.4147 83.948 69.5953 83.948C69.4204 86.0583 68.5032 88.0388 67.0061 89.5386Z" fill="#FDCE83"/>
<path d="M38.667 60.0503C38.667 60.0503 42.6737 56.535 42.8949 56.6359C43.1161 56.7368 50.9629 66.2081 50.7226 66.3908C50.4822 66.5735 43.3811 66.0908 38.667 60.0503Z" fill="#FDCE83"/>
<path d="M34.7061 64.8665C34.7061 64.8665 36.8173 62.0085 36.932 61.9403C37.0467 61.8721 45.9751 71.5452 44.8225 71.4852C43.6699 71.4252 39.7015 72.4233 34.7061 64.8665Z" fill="#FDCE83"/>
<path d="M31.2539 72.0362C31.2539 72.0362 32.4502 68.8046 32.5813 68.7037C32.7124 68.6028 38.8467 75.7942 38.8467 75.7942C38.8467 75.7942 34.8154 76.1569 31.2539 72.0362Z" fill="#FDCE83"/>
<path d="M42.8179 37.0088L37.3555 48.28L42.3317 51.7952L53.4997 49.3708L46.7017 37.8569L42.8179 37.0088Z" fill="#FDCE83"/>
<path d="M69.417 54.0997L70.9519 53.9825C70.7143 54.6751 69.8922 54.7161 69.6191 55.4033C70.9301 55.4715 72.1892 55.4497 73.4237 55.6187C75.9309 55.9623 77.7199 57.3723 78.5474 59.7421C79.375 62.112 79.0937 64.5855 77.119 66.2654C73.675 69.1971 70.0179 71.8669 66.1095 74.8967C66.1095 72.2378 66.1095 69.9497 66.1095 67.6644C66.1095 66.9663 66.1341 66.2763 65.2901 65.9381C65.0798 66.6199 65.3584 67.269 65.3994 67.9508C64.7575 67.5962 64.58 66.8817 63.93 66.2927V68.4062L63.6568 68.4744L62.5644 66.4563L62.1356 68.728C61.5893 68.1253 61.6303 67.3344 61.2698 66.7126C60.7973 67.2962 60.7973 68.0762 60.3876 68.8671C60.2155 68.0489 60.0735 67.3808 59.9342 66.7099C59.1312 69.2925 59.5983 71.9678 59.3306 74.9158C57.8066 73.3914 56.4655 72.0251 55.0917 70.6915C54.8186 70.4352 54.5892 69.827 54.1467 70.127C53.5284 70.5785 52.9767 71.1146 52.508 71.7196C52.3496 71.9133 52.7566 72.1532 52.9395 72.3332C53.7589 73.1214 54.5783 73.8904 55.2502 74.9731C53.5049 74.9731 51.7597 75.0085 50.0171 74.9567C49.6594 74.9291 49.3 74.9818 48.9653 75.1111C48.6307 75.2405 48.3293 75.443 48.0834 75.704C44.3963 79.4265 39.8734 81.0627 34.6841 80.9591C33.3185 80.9318 31.9529 80.9182 30.5873 80.9727C29.8471 81 29.6586 80.7246 29.6832 80.0292C29.8112 77.3015 30.3432 74.6079 31.2619 72.036C33.2502 74.2177 35.5034 75.6603 38.8547 75.7885C36.7926 73.7622 35.0309 71.9514 33.1683 70.2361C32.4226 69.5488 32.3489 68.9707 32.8569 68.1471C33.4987 67.1108 34.0614 66.0254 34.7141 64.8746C37.8277 67.5744 40.0946 71.4197 44.8196 71.4851C44.9343 70.9969 44.5055 70.8633 44.2898 70.6452C41.8918 68.2235 39.491 65.8018 37.0466 63.4265C36.4676 62.862 36.372 62.4911 36.9783 61.8938C37.8496 61.0348 38.5296 59.5512 39.5812 59.4394C40.5562 59.3276 41.2718 60.8548 42.1239 61.6348C43.1263 62.5565 44.0358 63.5983 45.0873 64.4464C46.6383 65.7194 48.5943 66.3965 50.6016 66.3554C48.9383 64.6919 47.488 63.241 46.0323 61.7929C44.5766 60.3448 43.1509 58.9131 41.6924 57.4732C45.5161 54.3179 45.5161 54.3179 48.8373 57.6341C49.3835 58.1795 50.0089 58.6567 50.476 59.2703C51.1287 60.1185 51.7651 60.2903 52.661 59.434C52.0901 59.0358 51.3145 59.3685 50.6972 58.8449L52.5244 58.1386C51.9782 57.5741 51.1588 57.7759 50.6535 57.1541L52.8003 56.7832L50.7491 55.5533L53.098 55.4115L51.4019 54.1215C52.0628 53.8488 52.5845 54.1706 53.1143 54.1215L53.4475 54.1788C53.3984 54.097 53.3492 54.0125 53.3028 53.9279C52.9122 53.3498 52.3114 53.5816 51.8006 53.5761C47.9769 53.5461 44.1532 53.5925 40.3295 53.5134C37.937 53.467 36.1917 52.2317 35.1866 50.0827C34.1542 47.8846 34.2553 45.572 35.9131 43.8539C37.2132 42.5067 37.5519 41.2059 37.6939 39.436C38.0489 35.0726 43.4294 32.8746 47.0647 35.4517C47.8562 36.0608 48.5953 36.7349 49.2742 37.467C52.6264 40.7996 55.9703 44.1394 59.306 47.4865C59.702 47.8819 60.1445 48.6237 60.4285 47.3228L61.2042 49.5427L62.0837 47.2492C62.2585 48.1437 62.3923 48.82 62.5616 49.6872C62.9795 48.9209 63.3154 48.3237 63.8398 47.3556V50.0172L65.3966 48.0128C65.301 48.8309 65.23 49.4609 65.1536 50.1318C65.8118 50.2109 65.9101 49.3355 66.5192 49.4445C66.7923 49.8563 66.4563 50.219 66.4208 50.6063C66.4208 50.729 66.4072 50.849 66.399 50.9717L66.7076 50.8517C67.1637 50.7236 67.4205 50.1836 68.1169 50.17C67.8438 50.7863 67.6253 51.2853 67.2812 52.0789L69.5508 50.9881C69.0046 51.7844 68.655 52.3216 68.2671 52.8971C69.0428 53.0471 69.6027 52.518 70.4357 52.4798L69.1657 53.8488L68.9663 54.1979L69.417 54.0997ZM49.7331 44.6748C47.8212 42.6513 46.1825 40.7941 44.4154 39.0815C43.7271 38.4188 42.8504 38.7624 42.3151 39.5451C41.7798 40.3278 41.9 41.2714 42.7221 41.6668C44.9425 42.7304 47.2477 43.6221 49.7331 44.6748ZM48.1599 49.0955L48.2173 48.8882C45.9749 47.961 43.7271 47.0419 41.4903 46.0984C40.7365 45.7793 40.0564 45.8257 39.5074 46.4338C39.2936 46.6417 39.1493 46.9104 39.094 47.2032C39.0388 47.496 39.0754 47.7988 39.1988 48.0701C39.5375 48.8418 40.1411 49.1064 40.9386 49.1009C43.3475 49.09 45.7537 49.0955 48.1599 49.0955ZM70.9 65.1146C71.9488 64.3401 72.7682 63.7864 73.5275 63.1592C74.1393 62.6547 74.3687 61.992 73.9781 61.223C73.8356 60.8846 73.578 60.6073 73.2506 60.4401C72.9233 60.273 72.5474 60.2267 72.1892 60.3094C71.8223 60.3544 71.4861 60.5363 71.248 60.8185C71.0099 61.1008 70.8876 61.4625 70.9055 61.8311C70.8864 62.8238 70.9 63.8164 70.9 65.1146Z" fill="#212120"/>
<path d="M81.29 63.1482C83.688 60.3339 86.0724 57.5004 88.5032 54.7105C89.1232 53.9988 89.9726 53.9197 90.6499 54.6396C91.3846 55.4196 91.1962 56.2459 90.3768 56.8568C87.4353 59.0385 84.4746 61.1956 81.5195 63.361L81.29 63.1482Z" fill="#212120"/>
<path d="M80.3642 61.5695C79.919 57.607 79.5011 54.0208 79.116 50.4292C78.9768 49.1311 79.4984 48.3729 80.4516 48.3539C81.4048 48.3348 82.0384 49.1311 81.8691 50.3774C81.3884 53.9826 81.2109 57.637 80.3642 61.5695Z" fill="#212120"/>
<path d="M65.2956 79.8711C66.1969 79.9584 66.7786 80.4792 66.7923 81.4228C66.806 82.4482 66.1723 83.0291 65.1672 83.0264C64.9601 83.0399 64.7524 83.0093 64.5581 82.9365C64.3638 82.8636 64.1872 82.7503 64.0401 82.604C63.8931 82.4577 63.779 82.2818 63.7054 82.088C63.6317 81.8942 63.6003 81.687 63.6132 81.4801C63.6077 80.5011 64.1813 79.9011 65.2956 79.8711Z" fill="#212120"/>
<path d="M64.3451 77.6243C64.2904 78.6743 63.7387 79.2988 62.7555 79.3151C61.7723 79.3315 61.1332 78.6852 61.1332 77.7034C61.1195 77.498 61.1487 77.2921 61.2189 77.0986C61.2892 76.9051 61.3989 76.7283 61.5411 76.5793C61.6834 76.4303 61.855 76.3125 62.0453 76.2333C62.2355 76.154 62.4402 76.1151 62.6462 76.1189C63.6486 76.0753 64.2058 76.6698 64.3451 77.6243Z" fill="#212120"/>
<path d="M59.0522 77.7276C59.0003 78.7175 58.4431 79.3011 57.5254 79.3284C56.5286 79.3611 55.8867 78.7393 55.8867 77.7276C55.8867 76.7158 56.5258 76.0913 57.5391 76.1431C58.465 76.1868 58.9921 76.7758 59.0522 77.7276Z" fill="#212120"/>
<path d="M61.8024 81.4581C61.6904 82.4944 61.1168 83.0589 60.109 83.0234C59.9016 83.0307 59.6951 82.9935 59.5033 82.9145C59.3115 82.8356 59.1388 82.7165 58.9968 82.5655C58.8548 82.4144 58.7468 82.2347 58.68 82.0386C58.6132 81.8424 58.5892 81.6343 58.6096 81.4281C58.6396 80.4545 59.2296 79.8273 60.2893 79.8873C61.2616 79.9418 61.7232 80.5445 61.8024 81.4581Z" fill="#212120"/>
<path d="M56.6733 81.412C56.5887 82.541 56.0151 83.0728 55.0892 83.0782C54.0678 83.0782 53.4723 82.4537 53.5079 81.442C53.5406 80.5175 54.0869 79.9284 55.0728 79.9366C56.1271 79.9448 56.5805 80.5748 56.6733 81.412Z" fill="#212120"/>
<path d="M75.8852 98.1153C62.5951 111.996 38.91 102.225 38.7762 83.3888C35.9357 83.3088 33.0925 83.2307 30.2466 83.1543C30.2598 85.1095 30.4325 87.0604 30.7628 88.9876C30.9267 89.9775 31.1943 90.4712 32.224 90.6021C33.0434 90.7057 33.2673 91.4202 32.6746 91.9356C31.899 92.6229 31.9836 93.3292 32.3168 94.1637C33.7146 97.583 35.6866 100.739 38.148 103.496C38.6178 104.041 39.0247 103.929 39.5628 103.769C40.7454 103.406 41.166 103.818 40.8874 105.015C40.7836 105.457 40.546 105.86 41.0813 106.286C44.1091 108.726 47.5514 110.603 51.2442 111.827C51.9625 112.062 52.4487 112.029 52.9621 111.41C53.6559 110.573 54 110.655 54.2294 111.699C54.4015 112.471 54.7757 112.741 55.5486 112.853C59.1835 113.4 62.8856 113.317 66.4926 112.61C67.2191 112.468 67.8582 112.493 67.9893 111.47C68.1559 110.207 68.571 110.12 69.4833 111.055C69.9203 111.503 70.2726 111.582 70.8816 111.355C74.5774 109.948 77.9797 107.868 80.9161 105.222C81.405 104.794 81.3586 104.404 81.1893 103.889C80.7932 102.64 80.9926 102.44 82.2544 102.749C82.7215 102.863 83.1039 103.005 83.5108 102.495C85.9533 99.5114 87.8412 96.1153 89.0852 92.4674C89.3583 91.6493 89.3857 91.0493 88.61 90.5202C88.0911 90.163 87.9818 89.6885 88.7711 89.5876C89.8636 89.4485 90.0903 88.8622 90.2214 87.8531C90.4186 86.3611 90.5226 84.8583 90.5328 83.3534C87.6832 83.5225 84.8373 83.6524 81.995 83.7434C81.8339 89.1292 79.6534 94.2583 75.8852 98.1153Z" fill="#212120"/>
<path d="M71.5066 93.7277C62.2478 103.51 45.2378 96.9375 44.9947 83.5747L41.5889 83.4819C42.9545 107.62 77.4197 107.969 79.1896 83.831C78.0479 83.8583 76.9072 83.8819 75.7673 83.9019C75.5756 87.582 74.0631 91.07 71.5066 93.7277Z" fill="#212120"/>
<path d="M56.0675 84.7087C56.8405 86.7104 58.4055 87.8176 60.4375 87.793C62.688 87.7467 64.9549 86.1568 65.0806 83.9396C61.9506 83.9233 58.8233 83.8769 55.6934 83.8169C55.8335 84.1075 55.9584 84.4051 56.0675 84.7087Z" fill="#212120"/>
<path d="M106.045 60V39.7H114.6C116.765 39.7 118.67 40.1253 120.313 40.976C121.976 41.8267 123.261 43.0157 124.17 44.543C125.098 46.0703 125.562 47.8393 125.562 49.85C125.562 51.8607 125.098 53.6297 124.17 55.157C123.261 56.6843 121.976 57.8733 120.313 58.724C118.67 59.5747 116.765 60 114.6 60H106.045ZM108.945 57.477H114.426C116.108 57.477 117.558 57.158 118.776 56.52C120.013 55.882 120.97 54.9927 121.647 53.852C122.324 52.692 122.662 51.358 122.662 49.85C122.662 48.3227 122.324 46.9887 121.647 45.848C120.97 44.7073 120.013 43.818 118.776 43.18C117.558 42.542 116.108 42.223 114.426 42.223H108.945V57.477ZM135.239 60L126.307 39.7H129.439L137.646 58.434H135.848L144.113 39.7H147.013L138.11 60H135.239ZM164.16 39.7H167.06V60H164.16V39.7ZM152.502 60H149.602V39.7H152.502V60ZM164.421 50.952H152.212V48.429H164.421V50.952ZM173.136 60V39.7H176.036V60H173.136ZM187.773 60L178.841 39.7H181.973L190.18 58.434H188.382L196.647 39.7H199.547L190.644 60H187.773ZM204.775 48.458H215.215V50.923H204.775V48.458ZM205.036 57.477H216.868V60H202.136V39.7H216.462V42.223H205.036V57.477Z" fill="white"/>
<path d="M106.562 86V71.3H112.379C113.933 71.3 115.298 71.615 116.474 72.245C117.65 72.875 118.56 73.743 119.204 74.849C119.862 75.955 120.191 77.222 120.191 78.65C120.191 80.078 119.862 81.345 119.204 82.451C118.56 83.557 117.65 84.425 116.474 85.055C115.298 85.685 113.933 86 112.379 86H106.562ZM107.633 85.034H112.295C113.681 85.034 114.885 84.761 115.907 84.215C116.929 83.669 117.72 82.92 118.28 81.968C118.84 81.002 119.12 79.896 119.12 78.65C119.12 77.404 118.84 76.305 118.28 75.353C117.72 74.387 116.929 73.631 115.907 73.085C114.885 72.539 113.681 72.266 112.295 72.266H107.633V85.034ZM123.912 86V71.3H124.983V86H123.912ZM130.105 86V71.3H131.008L137.833 83.081H137.35L144.154 71.3H145.036L145.057 86H144.007L143.986 72.917H144.28L137.833 84.047H137.308L130.84 72.917H131.155V86H130.105ZM150.182 86V71.3H151.253V86H150.182ZM156.375 86V71.3H157.278L167.757 84.677H167.274V71.3H168.345V86H167.463L156.963 72.623H157.446V86H156.375ZM173.479 86V71.3H174.55V86H173.479ZM183.536 86.105C182.444 86.105 181.408 85.923 180.428 85.559C179.462 85.181 178.713 84.698 178.181 84.11L178.664 83.312C179.168 83.83 179.854 84.271 180.722 84.635C181.604 84.985 182.535 85.16 183.515 85.16C184.495 85.16 185.293 85.034 185.909 84.782C186.539 84.516 187.001 84.166 187.295 83.732C187.603 83.298 187.757 82.815 187.757 82.283C187.757 81.653 187.589 81.149 187.253 80.771C186.917 80.393 186.476 80.092 185.93 79.868C185.384 79.644 184.789 79.455 184.145 79.301C183.501 79.147 182.85 78.986 182.192 78.818C181.534 78.636 180.932 78.405 180.386 78.125C179.84 77.845 179.399 77.467 179.063 76.991C178.741 76.501 178.58 75.871 178.58 75.101C178.58 74.401 178.762 73.757 179.126 73.169C179.49 72.581 180.057 72.105 180.827 71.741C181.597 71.377 182.584 71.195 183.788 71.195C184.6 71.195 185.398 71.314 186.182 71.552C186.98 71.79 187.659 72.112 188.219 72.518L187.82 73.379C187.204 72.959 186.539 72.651 185.825 72.455C185.125 72.245 184.446 72.14 183.788 72.14C182.85 72.14 182.073 72.273 181.457 72.539C180.841 72.805 180.386 73.162 180.092 73.61C179.798 74.044 179.651 74.534 179.651 75.08C179.651 75.71 179.812 76.214 180.134 76.592C180.47 76.97 180.911 77.271 181.457 77.495C182.003 77.719 182.605 77.908 183.263 78.062C183.921 78.216 184.572 78.384 185.216 78.566C185.86 78.734 186.455 78.958 187.001 79.238C187.547 79.518 187.988 79.896 188.324 80.372C188.66 80.848 188.828 81.464 188.828 82.22C188.828 82.906 188.639 83.55 188.261 84.152C187.883 84.74 187.302 85.216 186.518 85.58C185.748 85.93 184.754 86.105 183.536 86.105ZM203.368 71.3H204.439V86H203.368V71.3ZM193.54 86H192.469V71.3H193.54V86ZM203.494 79.007H193.414V78.062H203.494V79.007ZM210.518 78.062H218.477V79.007H210.518V78.062ZM210.644 85.034H219.716V86H209.573V71.3H219.401V72.266H210.644V85.034ZM223.621 86V71.3H229.438C230.992 71.3 232.357 71.615 233.533 72.245C234.709 72.875 235.619 73.743 236.263 74.849C236.921 75.955 237.25 77.222 237.25 78.65C237.25 80.078 236.921 81.345 236.263 82.451C235.619 83.557 234.709 84.425 233.533 85.055C232.357 85.685 230.992 86 229.438 86H223.621ZM224.692 85.034H229.354C230.74 85.034 231.944 84.761 232.966 84.215C233.988 83.669 234.779 82.92 235.339 81.968C235.899 81.002 236.179 79.896 236.179 78.65C236.179 77.404 235.899 76.305 235.339 75.353C234.779 74.387 233.988 73.631 232.966 73.085C231.944 72.539 230.74 72.266 229.354 72.266H224.692V85.034ZM250.48 86L243.928 71.3H245.104L251.362 85.349H250.711L256.99 71.3H258.103L251.551 86H250.48ZM257.565 86L264.327 71.3H265.398L272.16 86H271.005L264.621 71.972H265.083L258.72 86H257.565ZM260.043 81.863L260.4 80.96H269.199L269.556 81.863H260.043ZM274.829 86V71.3H275.9V85.034H284.363V86H274.829ZM292.58 86.105C290.76 86.105 289.325 85.573 288.275 84.509C287.225 83.445 286.7 81.863 286.7 79.763V71.3H287.771V79.721C287.771 81.555 288.191 82.913 289.031 83.795C289.871 84.677 291.061 85.118 292.601 85.118C294.127 85.118 295.31 84.677 296.15 83.795C296.99 82.913 297.41 81.555 297.41 79.721V71.3H298.481V79.763C298.481 81.863 297.956 83.445 296.906 84.509C295.856 85.573 294.414 86.105 292.58 86.105ZM304.423 78.062H312.382V79.007H304.423V78.062ZM304.549 85.034H313.621V86H303.478V71.3H313.306V72.266H304.549V85.034ZM107.507 104.062H115.466V105.007H107.507V104.062ZM107.633 111.034H116.705V112H106.562V97.3H116.39V98.266H107.633V111.034ZM118.283 112L124.247 103.999V104.839L118.682 97.3H119.942L124.856 103.936H124.394L129.308 97.3H130.505L124.982 104.755V104.041L130.904 112H129.644L124.352 104.902H124.793L119.543 112H118.283ZM133.386 112V97.3H138.657C139.889 97.3 140.946 97.496 141.828 97.888C142.71 98.28 143.389 98.847 143.865 99.589C144.341 100.317 144.579 101.206 144.579 102.256C144.579 103.278 144.341 104.16 143.865 104.902C143.389 105.644 142.71 106.211 141.828 106.603C140.946 106.995 139.889 107.191 138.657 107.191H133.974L134.457 106.687V112H133.386ZM134.457 106.75L133.974 106.225H138.657C140.239 106.225 141.436 105.882 142.248 105.196C143.074 104.496 143.487 103.516 143.487 102.256C143.487 100.982 143.074 100.002 142.248 99.316C141.436 98.616 140.239 98.266 138.657 98.266H133.974L134.457 97.741V106.75ZM149.138 104.062H157.097V105.007H149.138V104.062ZM149.264 111.034H158.336V112H148.193V97.3H158.021V98.266H149.264V111.034ZM162.241 112V97.3H167.512C168.744 97.3 169.801 97.496 170.683 97.888C171.565 98.28 172.244 98.847 172.72 99.589C173.196 100.317 173.434 101.206 173.434 102.256C173.434 103.278 173.196 104.16 172.72 104.902C172.244 105.63 171.565 106.197 170.683 106.603C169.801 106.995 168.744 107.191 167.512 107.191H162.829L163.312 106.687V112H162.241ZM172.447 112L168.625 106.666H169.843L173.665 112H172.447ZM163.312 106.75L162.829 106.246H167.512C169.094 106.246 170.291 105.896 171.103 105.196C171.929 104.496 172.342 103.516 172.342 102.256C172.342 100.982 171.929 100.002 171.103 99.316C170.291 98.616 169.094 98.266 167.512 98.266H162.829L163.312 97.741V106.75ZM179.964 112V98.266H174.672V97.3H186.327V98.266H181.035V112H179.964ZM192.58 112.105C191.488 112.105 190.452 111.923 189.472 111.559C188.506 111.181 187.757 110.698 187.225 110.11L187.708 109.312C188.212 109.83 188.898 110.271 189.766 110.635C190.648 110.985 191.579 111.16 192.559 111.16C193.539 111.16 194.337 111.034 194.953 110.782C195.583 110.516 196.045 110.166 196.339 109.732C196.647 109.298 196.801 108.815 196.801 108.283C196.801 107.653 196.633 107.149 196.297 106.771C195.961 106.393 195.52 106.092 194.974 105.868C194.428 105.644 193.833 105.455 193.189 105.301C192.545 105.147 191.894 104.986 191.236 104.818C190.578 104.636 189.976 104.405 189.43 104.125C188.884 103.845 188.443 103.467 188.107 102.991C187.785 102.501 187.624 101.871 187.624 101.101C187.624 100.401 187.806 99.757 188.17 99.169C188.534 98.581 189.101 98.105 189.871 97.741C190.641 97.377 191.628 97.195 192.832 97.195C193.644 97.195 194.442 97.314 195.226 97.552C196.024 97.79 196.703 98.112 197.263 98.518L196.864 99.379C196.248 98.959 195.583 98.651 194.869 98.455C194.169 98.245 193.49 98.14 192.832 98.14C191.894 98.14 191.117 98.273 190.501 98.539C189.885 98.805 189.43 99.162 189.136 99.61C188.842 100.044 188.695 100.534 188.695 101.08C188.695 101.71 188.856 102.214 189.178 102.592C189.514 102.97 189.955 103.271 190.501 103.495C191.047 103.719 191.649 103.908 192.307 104.062C192.965 104.216 193.616 104.384 194.26 104.566C194.904 104.734 195.499 104.958 196.045 105.238C196.591 105.518 197.032 105.896 197.368 106.372C197.704 106.848 197.872 107.464 197.872 108.22C197.872 108.906 197.683 109.55 197.305 110.152C196.927 110.74 196.346 111.216 195.562 111.58C194.792 111.93 193.798 112.105 192.58 112.105Z" fill="white"/>
</svg>
